<?xml version="1.0" encoding="UTF-8" standalone="no"?>
<!DOCTYPE svg PUBLIC "-//W3C//DTD SVG 1.1//EN"
 "http://www.w3.org/Graphics/SVG/1.1/DTD/svg11.dtd">
<!-- Generated by graphviz version 2.43.0 (0)
 -->
<!-- Title: ReceiverFSM Pages: 1 -->
<svg width="2122pt" height="96pt"
 viewBox="0.00 0.00 2122.00 96.14" xmlns="http://www.w3.org/2000/svg" xmlns:xlink="http://www.w3.org/1999/xlink">
<g id="graph0" class="graph" transform="scale(1 1) rotate(0) translate(4 92.14)">
<title>ReceiverFSM</title>
<polygon fill="white" stroke="transparent" points="-4,4 -4,-92.14 2118,-92.14 2118,4 -4,4"/>
<!-- R_IDLE -->
<g id="node1" class="node">
<title>R_IDLE</title>
<polygon fill="none" stroke="black" points="70,-55.14 0,-55.14 0,-19.14 70,-19.14 70,-55.14"/>
<text text-anchor="middle" x="35" y="-33.44" font-family="Times,serif" font-size="14.00">R_IDLE</text>
</g>
<!-- R_HDR_RECV -->
<g id="node2" class="node">
<title>R_HDR_RECV</title>
<polygon fill="none" stroke="black" points="424,-55.14 308,-55.14 308,-19.14 424,-19.14 424,-55.14"/>
<text text-anchor="middle" x="366" y="-33.44" font-family="Times,serif" font-size="14.00">R_HDR_RECV</text>
</g>
<!-- R_IDLE&#45;&gt;R_HDR_RECV -->
<g id="edge1" class="edge">
<title>R_IDLE&#45;&gt;R_HDR_RECV</title>
<path fill="none" stroke="black" d="M70.28,-37.14C123.82,-37.14 228.29,-37.14 297.37,-37.14"/>
<polygon fill="black" stroke="black" points="297.72,-40.64 307.72,-37.14 297.72,-33.64 297.72,-40.64"/>
<text text-anchor="middle" x="189" y="-40.94" font-family="Times,serif" font-size="14.00">recv(FILE_HDR) / create file</text>
</g>
<!-- R_RECVING_DATA -->
<g id="node3" class="node">
<title>R_RECVING_DATA</title>
<polygon fill="none" stroke="black" points="766,-55.14 617,-55.14 617,-19.14 766,-19.14 766,-55.14"/>
<text text-anchor="middle" x="691.5" y="-33.44" font-family="Times,serif" font-size="14.00">R_RECVING_DATA</text>
</g>
<!-- R_HDR_RECV&#45;&gt;R_RECVING_DATA -->
<g id="edge2" class="edge">
<title>R_HDR_RECV&#45;&gt;R_RECVING_DATA</title>
<path fill="none" stroke="black" d="M424.09,-37.14C474.74,-37.14 549.38,-37.14 606.78,-37.14"/>
<polygon fill="black" stroke="black" points="606.93,-40.64 616.93,-37.14 606.93,-33.64 606.93,-40.64"/>
<text text-anchor="middle" x="520.5" y="-40.94" font-family="Times,serif" font-size="14.00">send(FILE_HDR_ACK)</text>
</g>
<!-- R_RECVING_DATA&#45;&gt;R_RECVING_DATA -->
<g id="edge3" class="edge">
<title>R_RECVING_DATA&#45;&gt;R_RECVING_DATA</title>
<path fill="none" stroke="black" d="M660.75,-55.3C656.01,-64.68 666.27,-73.14 691.5,-73.14 706.88,-73.14 716.69,-70 720.94,-65.42"/>
<polygon fill="black" stroke="black" points="724.44,-65.66 722.25,-55.3 717.5,-64.76 724.44,-65.66"/>
<text text-anchor="middle" x="691.5" y="-76.94" font-family="Times,serif" font-size="14.00">recv(DATA_PKT) / buffer records</text>
</g>
<!-- R_SEND_REC_MISS -->
<g id="node4" class="node">
<title>R_SEND_REC_MISS</title>
<polygon fill="none" stroke="black" points="1279,-55.14 1118,-55.14 1118,-19.14 1279,-19.14 1279,-55.14"/>
<text text-anchor="middle" x="1198.5" y="-33.44" font-family="Times,serif" font-size="14.00">R_SEND_REC_MISS</text>
</g>
<!-- R_RECVING_DATA&#45;&gt;R_SEND_REC_MISS -->
<g id="edge4" class="edge">
<title>R_RECVING_DATA&#45;&gt;R_SEND_REC_MISS</title>
<path fill="none" stroke="black" d="M766.27,-51.17C772.25,-51.96 778.22,-52.64 784,-53.14 923.92,-65.28 960.02,-64.55 1100,-53.14 1102.54,-52.94 1105.12,-52.7 1107.72,-52.44"/>
<polygon fill="black" stroke="black" points="1108.27,-55.9 1117.82,-51.3 1107.49,-48.94 1108.27,-55.9"/>
<text text-anchor="middle" x="942" y="-64.94" font-family="Times,serif" font-size="14.00">recv(IS_BLAST_OVER)</text>
</g>
<!-- R_SEND_REC_MISS&#45;&gt;R_RECVING_DATA -->
<g id="edge5" class="edge">
<title>R_SEND_REC_MISS&#45;&gt;R_RECVING_DATA</title>
<path fill="none" stroke="black" d="M1117.96,-34.49C1111.88,-34.35 1105.84,-34.23 1100,-34.14 959.57,-31.98 924.43,-31.84 784,-34.14 781.59,-34.18 779.14,-34.23 776.67,-34.28"/>
<polygon fill="black" stroke="black" points="776.32,-30.78 766.41,-34.51 776.48,-37.78 776.32,-30.78"/>
<text text-anchor="middle" x="942" y="-37.94" font-family="Times,serif" font-size="14.00">send(REC_MISS(list != {}))</text>
</g>
<!-- R_SEND_REC_MISS&#45;&gt;R_RECVING_DATA -->
<g id="edge6" class="edge">
<title>R_SEND_REC_MISS&#45;&gt;R_RECVING_DATA</title>
<path fill="none" stroke="black" d="M1133.66,-19.1C1122.53,-16.62 1110.99,-14.48 1100,-13.14 960.58,3.76 923.29,4.82 784,-13.14 776.95,-14.05 769.66,-15.34 762.42,-16.86"/>
<polygon fill="black" stroke="black" points="761.6,-13.45 752.61,-19.04 763.13,-20.28 761.6,-13.45"/>
<text text-anchor="middle" x="942" y="-16.94" font-family="Times,serif" font-size="14.00">send(REC_MISS({})) / more blasts expected</text>
</g>
<!-- R_WAIT_DISCONNECT -->
<g id="node5" class="node">
<title>R_WAIT_DISCONNECT</title>
<polygon fill="none" stroke="black" points="1729,-55.14 1549,-55.14 1549,-19.14 1729,-19.14 1729,-55.14"/>
<text text-anchor="middle" x="1639" y="-33.44" font-family="Times,serif" font-size="14.00">R_WAIT_DISCONNECT</text>
</g>
<!-- R_SEND_REC_MISS&#45;&gt;R_WAIT_DISCONNECT -->
<g id="edge7" class="edge">
<title>R_SEND_REC_MISS&#45;&gt;R_WAIT_DISCONNECT</title>
<path fill="none" stroke="black" d="M1279.16,-37.14C1351.95,-37.14 1459.86,-37.14 1538.33,-37.14"/>
<polygon fill="black" stroke="black" points="1538.72,-40.64 1548.72,-37.14 1538.72,-33.64 1538.72,-40.64"/>
<text text-anchor="middle" x="1414" y="-40.94" font-family="Times,serif" font-size="14.00">send(REC_MISS({})) / final blast</text>
</g>
<!-- R_DONE -->
<g id="node6" class="node">
<title>R_DONE</title>
<polygon fill="none" stroke="black" points="2114,-55.14 2035,-55.14 2035,-19.14 2114,-19.14 2114,-55.14"/>
<text text-anchor="middle" x="2074.5" y="-33.44" font-family="Times,serif" font-size="14.00">R_DONE</text>
</g>
<!-- R_WAIT_DISCONNECT&#45;&gt;R_DONE -->
<g id="edge8" class="edge">
<title>R_WAIT_DISCONNECT&#45;&gt;R_DONE</title>
<path fill="none" stroke="black" d="M1729.03,-37.14C1818.54,-37.14 1953.22,-37.14 2024.77,-37.14"/>
<polygon fill="black" stroke="black" points="2024.85,-40.64 2034.85,-37.14 2024.85,-33.64 2024.85,-40.64"/>
<text text-anchor="middle" x="1882" y="-40.94" font-family="Times,serif" font-size="14.00">recv(DISCONNECT) or linger timeout</text>
</g>
</g>
</svg>
