<?xml version="1.0" encoding="UTF-8" standalone="no"?>
<!DOCTYPE svg PUBLIC "-//W3C//DTD SVG 1.1//EN"
 "http://www.w3.org/Graphics/SVG/1.1/DTD/svg11.dtd">
<!-- Generated by graphviz version 2.43.0 (0)
 -->
<!-- Title: ReceiverFSM Pages: 1 -->
<svg width="2417pt" height="85pt"
 viewBox="0.00 0.00 2417.00 85.22" xmlns="http://www.w3.org/2000/svg" xmlns:xlink="http://www.w3.org/1999/xlink">
<g id="graph0" class="graph" transform="scale(1 1) rotate(0) translate(4 81.22)">
<title>ReceiverFSM</title>
<polygon fill="white" stroke="transparent" points="-4,4 -4,-81.22 2413,-81.22 2413,4 -4,4"/>
<!-- R_IDLE -->
<g id="node1" class="node">
<title>R_IDLE</title>
<polygon fill="none" stroke="black" points="70,-44.22 0,-44.22 0,-8.22 70,-8.22 70,-44.22"/>
<text text-anchor="middle" x="35" y="-22.52" font-family="Times,serif" font-size="14.00">R_IDLE</text>
</g>
<!-- R_HDR_RECV -->
<g id="node2" class="node">
<title>R_HDR_RECV</title>
<polygon fill="none" stroke="black" points="424,-44.22 308,-44.22 308,-8.22 424,-8.22 424,-44.22"/>
<text text-anchor="middle" x="366" y="-22.52" font-family="Times,serif" font-size="14.00">R_HDR_RECV</text>
</g>
<!-- R_IDLE&#45;&gt;R_HDR_RECV -->
<g id="edge1" class="edge">
<title>R_IDLE&#45;&gt;R_HDR_RECV</title>
<path fill="none" stroke="black" d="M70.28,-26.22C123.82,-26.22 228.29,-26.22 297.37,-26.22"/>
<polygon fill="black" stroke="black" points="297.72,-29.72 307.72,-26.22 297.72,-22.72 297.72,-29.72"/>
<text text-anchor="middle" x="189" y="-30.02" font-family="Times,serif" font-size="14.00">recv(FILE_HDR) / create file</text>
</g>
<!-- R_WAIT_BLAST -->
<g id="node3" class="node">
<title>R_WAIT_BLAST</title>
<polygon fill="none" stroke="black" points="743,-44.22 617,-44.22 617,-8.22 743,-8.22 743,-44.22"/>
<text text-anchor="middle" x="680" y="-22.52" font-family="Times,serif" font-size="14.00">R_WAIT_BLAST</text>
</g>
<!-- R_HDR_RECV&#45;&gt;R_WAIT_BLAST -->
<g id="edge2" class="edge">
<title>R_HDR_RECV&#45;&gt;R_WAIT_BLAST</title>
<path fill="none" stroke="black" d="M424.23,-26.22C475.57,-26.22 551.15,-26.22 606.67,-26.22"/>
<polygon fill="black" stroke="black" points="606.79,-29.72 616.79,-26.22 606.79,-22.72 606.79,-29.72"/>
<text text-anchor="middle" x="520.5" y="-30.02" font-family="Times,serif" font-size="14.00">send(FILE_HDR_ACK)</text>
</g>
<!-- R_WAIT_BLAST&#45;&gt;R_HDR_RECV -->
<g id="edge3" class="edge">
<title>R_WAIT_BLAST&#45;&gt;R_HDR_RECV</title>
<path fill="none" stroke="black" d="M616.8,-9.97C610.82,-8.85 604.81,-7.9 599,-7.22 529.7,0.89 511.24,1.41 442,-7.22 439.34,-7.56 436.64,-7.95 433.93,-8.4"/>
<polygon fill="black" stroke="black" points="433.25,-4.96 424.05,-10.22 434.52,-11.85 433.25,-4.96"/>
<text text-anchor="middle" x="520.5" y="-11.02" font-family="Times,serif" font-size="14.00">recv(FILE_HDR)</text>
</g>
<!-- R_RECVING_BLAST -->
<g id="node4" class="node">
<title>R_RECVING_BLAST</title>
<polygon fill="none" stroke="black" points="1178,-44.22 1020,-44.22 1020,-8.22 1178,-8.22 1178,-44.22"/>
<text text-anchor="middle" x="1099" y="-22.52" font-family="Times,serif" font-size="14.00">R_RECVING_BLAST</text>
</g>
<!-- R_WAIT_BLAST&#45;&gt;R_RECVING_BLAST -->
<g id="edge4" class="edge">
<title>R_WAIT_BLAST&#45;&gt;R_RECVING_BLAST</title>
<path fill="none" stroke="black" d="M743.43,-26.22C814.13,-26.22 929.87,-26.22 1009.79,-26.22"/>
<polygon fill="black" stroke="black" points="1009.84,-29.72 1019.84,-26.22 1009.84,-22.72 1009.84,-29.72"/>
<text text-anchor="middle" x="881.5" y="-30.02" font-family="Times,serif" font-size="14.00">recv(BLAST_PKT) / buffer records</text>
</g>
<!-- R_RECVING_BLAST&#45;&gt;R_RECVING_BLAST -->
<g id="edge5" class="edge">
<title>R_RECVING_BLAST&#45;&gt;R_RECVING_BLAST</title>
<path fill="none" stroke="black" d="M1063.54,-44.38C1058.09,-53.76 1069.91,-62.22 1099,-62.22 1116.73,-62.22 1128.04,-59.08 1132.94,-54.5"/>
<polygon fill="black" stroke="black" points="1136.44,-54.78 1134.46,-44.38 1129.52,-53.75 1136.44,-54.78"/>
<text text-anchor="middle" x="1099" y="-66.02" font-family="Times,serif" font-size="14.00">recv(BLAST_PKT) / buffer records</text>
</g>
<!-- R_SEND_REC_MISS -->
<g id="node5" class="node">
<title>R_SEND_REC_MISS</title>
<polygon fill="none" stroke="black" points="1574,-44.22 1413,-44.22 1413,-8.22 1574,-8.22 1574,-44.22"/>
<text text-anchor="middle" x="1493.5" y="-22.52" font-family="Times,serif" font-size="14.00">R_SEND_REC_MISS</text>
</g>
<!-- R_RECVING_BLAST&#45;&gt;R_SEND_REC_MISS -->
<g id="edge6" class="edge">
<title>R_RECVING_BLAST&#45;&gt;R_SEND_REC_MISS</title>
<path fill="none" stroke="black" d="M1178.01,-26.22C1242.77,-26.22 1334.9,-26.22 1402.71,-26.22"/>
<polygon fill="black" stroke="black" points="1402.95,-29.72 1412.95,-26.22 1402.95,-22.72 1402.95,-29.72"/>
<text text-anchor="middle" x="1295.5" y="-30.02" font-family="Times,serif" font-size="14.00">recv(IS_BLAST_OVER)</text>
</g>
<!-- R_SEND_REC_MISS&#45;&gt;R_RECVING_BLAST -->
<g id="edge7" class="edge">
<title>R_SEND_REC_MISS&#45;&gt;R_RECVING_BLAST</title>
<path fill="none" stroke="black" d="M1412.87,-9.41C1406.84,-8.54 1400.84,-7.79 1395,-7.22 1306.96,1.27 1284.02,1.4 1196,-7.22 1193.45,-7.47 1190.86,-7.76 1188.26,-8.08"/>
<polygon fill="black" stroke="black" points="1187.58,-4.64 1178.14,-9.45 1188.52,-11.58 1187.58,-4.64"/>
<text text-anchor="middle" x="1295.5" y="-11.02" font-family="Times,serif" font-size="14.00">send(REC_MISS(list != {}))</text>
</g>
<!-- R_WAIT_DISCONNECT -->
<g id="node6" class="node">
<title>R_WAIT_DISCONNECT</title>
<polygon fill="none" stroke="black" points="2024,-44.22 1844,-44.22 1844,-8.22 2024,-8.22 2024,-44.22"/>
<text text-anchor="middle" x="1934" y="-22.52" font-family="Times,serif" font-size="14.00">R_WAIT_DISCONNECT</text>
</g>
<!-- R_SEND_REC_MISS&#45;&gt;R_WAIT_DISCONNECT -->
<g id="edge8" class="edge">
<title>R_SEND_REC_MISS&#45;&gt;R_WAIT_DISCONNECT</title>
<path fill="none" stroke="black" d="M1574.16,-26.22C1646.95,-26.22 1754.86,-26.22 1833.33,-26.22"/>
<polygon fill="black" stroke="black" points="1833.72,-29.72 1843.72,-26.22 1833.72,-22.72 1833.72,-29.72"/>
<text text-anchor="middle" x="1709" y="-30.02" font-family="Times,serif" font-size="14.00">send(REC_MISS({})) / final blast</text>
</g>
<!-- R_WAIT_DISCONNECT&#45;&gt;R_SEND_REC_MISS -->
<g id="edge9" class="edge">
<title>R_WAIT_DISCONNECT&#45;&gt;R_SEND_REC_MISS</title>
<path fill="none" stroke="black" d="M1843.83,-9.18C1837.81,-8.4 1831.83,-7.74 1826,-7.22 1722.4,1.9 1695.52,2.77 1592,-7.22 1589.45,-7.47 1586.86,-7.75 1584.25,-8.06"/>
<polygon fill="black" stroke="black" points="1583.58,-4.62 1574.13,-9.41 1584.5,-11.56 1583.58,-4.62"/>
<text text-anchor="middle" x="1709" y="-11.02" font-family="Times,serif" font-size="14.00">recv(IS_BLAST_OVER)</text>
</g>
<!-- R_DONE -->
<g id="node7" class="node">
<title>R_DONE</title>
<polygon fill="none" stroke="black" points="2409,-44.22 2330,-44.22 2330,-8.22 2409,-8.22 2409,-44.22"/>
<text text-anchor="middle" x="2369.5" y="-22.52" font-family="Times,serif" font-size="14.00">R_DONE</text>
</g>
<!-- R_WAIT_DISCONNECT&#45;&gt;R_DONE -->
<g id="edge10" class="edge">
<title>R_WAIT_DISCONNECT&#45;&gt;R_DONE</title>
<path fill="none" stroke="black" d="M2024.03,-26.22C2113.54,-26.22 2248.22,-26.22 2319.77,-26.22"/>
<polygon fill="black" stroke="black" points="2319.85,-29.72 2329.85,-26.22 2319.85,-22.72 2319.85,-29.72"/>
<text text-anchor="middle" x="2177" y="-30.02" font-family="Times,serif" font-size="14.00">recv(DISCONNECT) or linger timeout</text>
</g>
</g>
</svg>
