<?xml version="1.0" encoding="UTF-8" standalone="no"?>
<!DOCTYPE svg PUBLIC "-//W3C//DTD SVG 1.1//EN"
 "http://www.w3.org/Graphics/SVG/1.1/DTD/svg11.dtd">
<!-- Generated by graphviz version 2.43.0 (0)
 -->
<!-- Title: ReceiverFSM Pages: 1 -->
<svg width="2497pt" height="87pt"
 viewBox="0.00 0.00 2497.00 86.82" xmlns="http://www.w3.org/2000/svg" xmlns:xlink="http://www.w3.org/1999/xlink">
<g id="graph0" class="graph" transform="scale(1 1) rotate(0) translate(4 82.82)">
<title>ReceiverFSM</title>
<polygon fill="white" stroke="transparent" points="-4,4 -4,-82.82 2493,-82.82 2493,4 -4,4"/>
<!-- R_IDLE -->
<g id="node1" class="node">
<title>R_IDLE</title>
<polygon fill="none" stroke="black" points="70,-45.82 0,-45.82 0,-9.82 70,-9.82 70,-45.82"/>
<text text-anchor="middle" x="35" y="-24.12" font-family="Times,serif" font-size="14.00">R_IDLE</text>
</g>
<!-- R_HDR_RECV -->
<g id="node2" class="node">
<title>R_HDR_RECV</title>
<polygon fill="none" stroke="black" points="424,-45.82 308,-45.82 308,-9.82 424,-9.82 424,-45.82"/>
<text text-anchor="middle" x="366" y="-24.12" font-family="Times,serif" font-size="14.00">R_HDR_RECV</text>
</g>
<!-- R_IDLE&#45;&gt;R_HDR_RECV -->
<g id="edge1" class="edge">
<title>R_IDLE&#45;&gt;R_HDR_RECV</title>
<path fill="none" stroke="black" d="M70.28,-27.82C123.82,-27.82 228.29,-27.82 297.37,-27.82"/>
<polygon fill="black" stroke="black" points="297.72,-31.32 307.72,-27.82 297.72,-24.32 297.72,-31.32"/>
<text text-anchor="middle" x="189" y="-31.62" font-family="Times,serif" font-size="14.00">recv(FILE_HDR) / create file</text>
</g>
<!-- R_WAIT_BLAST -->
<g id="node3" class="node">
<title>R_WAIT_BLAST</title>
<polygon fill="none" stroke="black" points="743,-45.82 617,-45.82 617,-9.82 743,-9.82 743,-45.82"/>
<text text-anchor="middle" x="680" y="-24.12" font-family="Times,serif" font-size="14.00">R_WAIT_BLAST</text>
</g>
<!-- R_HDR_RECV&#45;&gt;R_WAIT_BLAST -->
<g id="edge2" class="edge">
<title>R_HDR_RECV&#45;&gt;R_WAIT_BLAST</title>
<path fill="none" stroke="black" d="M424.23,-27.82C475.57,-27.82 551.15,-27.82 606.67,-27.82"/>
<polygon fill="black" stroke="black" points="606.79,-31.32 616.79,-27.82 606.79,-24.32 606.79,-31.32"/>
<text text-anchor="middle" x="520.5" y="-31.62" font-family="Times,serif" font-size="14.00">send(FILE_HDR_ACK)</text>
</g>
<!-- R_WAIT_BLAST&#45;&gt;R_HDR_RECV -->
<g id="edge3" class="edge">
<title>R_WAIT_BLAST&#45;&gt;R_HDR_RECV</title>
<path fill="none" stroke="black" d="M616.8,-11.57C610.82,-10.45 604.81,-9.5 599,-8.82 529.7,-0.7 511.24,-0.19 442,-8.82 439.34,-9.15 436.64,-9.55 433.93,-9.99"/>
<polygon fill="black" stroke="black" points="433.25,-6.56 424.05,-11.82 434.52,-13.44 433.25,-6.56"/>
<text text-anchor="middle" x="520.5" y="-12.62" font-family="Times,serif" font-size="14.00">recv(FILE_HDR)</text>
</g>
<!-- R_RECVING_BLAST -->
<g id="node4" class="node">
<title>R_RECVING_BLAST</title>
<polygon fill="none" stroke="black" points="1178,-45.82 1020,-45.82 1020,-9.82 1178,-9.82 1178,-45.82"/>
<text text-anchor="middle" x="1099" y="-24.12" font-family="Times,serif" font-size="14.00">R_RECVING_BLAST</text>
</g>
<!-- R_WAIT_BLAST&#45;&gt;R_RECVING_BLAST -->
<g id="edge4" class="edge">
<title>R_WAIT_BLAST&#45;&gt;R_RECVING_BLAST</title>
<path fill="none" stroke="black" d="M743.43,-27.82C814.13,-27.82 929.87,-27.82 1009.79,-27.82"/>
<polygon fill="black" stroke="black" points="1009.84,-31.32 1019.84,-27.82 1009.84,-24.32 1009.84,-31.32"/>
<text text-anchor="middle" x="881.5" y="-31.62" font-family="Times,serif" font-size="14.00">recv(BLAST_PKT) / buffer records</text>
</g>
<!-- R_RECVING_BLAST&#45;&gt;R_RECVING_BLAST -->
<g id="edge5" class="edge">
<title>R_RECVING_BLAST&#45;&gt;R_RECVING_BLAST</title>
<path fill="none" stroke="black" d="M1063.54,-45.97C1058.09,-55.36 1069.91,-63.82 1099,-63.82 1116.73,-63.82 1128.04,-60.68 1132.94,-56.1"/>
<polygon fill="black" stroke="black" points="1136.44,-56.38 1134.46,-45.97 1129.52,-55.34 1136.44,-56.38"/>
<text text-anchor="middle" x="1099" y="-67.62" font-family="Times,serif" font-size="14.00">recv(BLAST_PKT) / buffer records</text>
</g>
<!-- R_SEND_REC_MISS -->
<g id="node5" class="node">
<title>R_SEND_REC_MISS</title>
<polygon fill="none" stroke="black" points="1614,-73.82 1453,-73.82 1453,-37.82 1614,-37.82 1614,-73.82"/>
<text text-anchor="middle" x="1533.5" y="-52.12" font-family="Times,serif" font-size="14.00">R_SEND_REC_MISS</text>
</g>
<!-- R_RECVING_BLAST&#45;&gt;R_SEND_REC_MISS -->
<g id="edge6" class="edge">
<title>R_RECVING_BLAST&#45;&gt;R_SEND_REC_MISS</title>
<path fill="none" stroke="black" d="M1178.21,-41.71C1184.22,-42.52 1190.2,-43.24 1196,-43.82 1279.26,-52.21 1374.62,-54.97 1442.52,-55.77"/>
<polygon fill="black" stroke="black" points="1442.72,-59.27 1452.76,-55.88 1442.79,-52.27 1442.72,-59.27"/>
<text text-anchor="middle" x="1295.5" y="-57.62" font-family="Times,serif" font-size="14.00">recv(IS_BLAST_OVER)</text>
</g>
<!-- R_SEND_REC_MISS&#45;&gt;R_RECVING_BLAST -->
<g id="edge7" class="edge">
<title>R_SEND_REC_MISS&#45;&gt;R_RECVING_BLAST</title>
<path fill="none" stroke="black" d="M1466.22,-37.76C1443.78,-32.48 1418.47,-27.43 1395,-24.82 1307.1,-15.03 1284.43,-23.44 1196,-24.82 1193.45,-24.86 1190.86,-24.91 1188.24,-24.96"/>
<polygon fill="black" stroke="black" points="1187.98,-21.46 1178.06,-25.18 1188.13,-28.46 1187.98,-21.46"/>
<text text-anchor="middle" x="1295.5" y="-28.62" font-family="Times,serif" font-size="14.00">send(REC_MISS(list != {}))</text>
</g>
<!-- R_WAIT_DISCONNECT -->
<g id="node6" class="node">
<title>R_WAIT_DISCONNECT</title>
<polygon fill="none" stroke="black" points="2104,-45.82 1924,-45.82 1924,-9.82 2104,-9.82 2104,-45.82"/>
<text text-anchor="middle" x="2014" y="-24.12" font-family="Times,serif" font-size="14.00">R_WAIT_DISCONNECT</text>
</g>
<!-- R_SEND_REC_MISS&#45;&gt;R_WAIT_DISCONNECT -->
<g id="edge8" class="edge">
<title>R_SEND_REC_MISS&#45;&gt;R_WAIT_DISCONNECT</title>
<path fill="none" stroke="black" d="M1614.02,-55.92C1689.35,-55.38 1805.58,-52.92 1906,-43.82 1908.54,-43.59 1911.11,-43.34 1913.7,-43.07"/>
<polygon fill="black" stroke="black" points="1914.21,-46.54 1923.77,-41.96 1913.44,-39.58 1914.21,-46.54"/>
<text text-anchor="middle" x="1789" y="-58.62" font-family="Times,serif" font-size="14.00">send(REC_MISS({})) / final blast</text>
</g>
<!-- R_WAIT_DISCONNECT&#45;&gt;R_RECVING_BLAST -->
<g id="edge10" class="edge">
<title>R_WAIT_DISCONNECT&#45;&gt;R_RECVING_BLAST</title>
<path fill="none" stroke="black" d="M1923.74,-16.18C1917.75,-15.65 1911.79,-15.18 1906,-14.82 1591.06,4.87 1510.85,5.24 1196,-15.82 1193.47,-15.99 1190.91,-16.18 1188.32,-16.39"/>
<polygon fill="black" stroke="black" points="1187.91,-12.91 1178.25,-17.28 1188.52,-19.88 1187.91,-12.91"/>
<text text-anchor="middle" x="1533.5" y="-7.62" font-family="Times,serif" font-size="14.00">recv(BLAST_PKT) / buffer records</text>
</g>
<!-- R_WAIT_DISCONNECT&#45;&gt;R_SEND_REC_MISS -->
<g id="edge9" class="edge">
<title>R_WAIT_DISCONNECT&#45;&gt;R_SEND_REC_MISS</title>
<path fill="none" stroke="black" d="M1923.97,-25.13C1917.89,-25.01 1911.85,-24.9 1906,-24.82 1802.01,-23.36 1775.36,-13.31 1672,-24.82 1651.92,-27.06 1630.5,-31.07 1610.68,-35.49"/>
<polygon fill="black" stroke="black" points="1609.75,-32.11 1600.78,-37.76 1611.31,-38.93 1609.75,-32.11"/>
<text text-anchor="middle" x="1789" y="-28.62" font-family="Times,serif" font-size="14.00">recv(IS_BLAST_OVER)</text>
</g>
<!-- R_DONE -->
<g id="node7" class="node">
<title>R_DONE</title>
<polygon fill="none" stroke="black" points="2489,-45.82 2410,-45.82 2410,-9.82 2489,-9.82 2489,-45.82"/>
<text text-anchor="middle" x="2449.5" y="-24.12" font-family="Times,serif" font-size="14.00">R_DONE</text>
</g>
<!-- R_WAIT_DISCONNECT&#45;&gt;R_DONE -->
<g id="edge11" class="edge">
<title>R_WAIT_DISCONNECT&#45;&gt;R_DONE</title>
<path fill="none" stroke="black" d="M2104.03,-27.82C2193.54,-27.82 2328.22,-27.82 2399.77,-27.82"/>
<polygon fill="black" stroke="black" points="2399.85,-31.32 2409.85,-27.82 2399.85,-24.32 2399.85,-31.32"/>
<text text-anchor="middle" x="2257" y="-31.62" font-family="Times,serif" font-size="14.00">recv(DISCONNECT) or linger timeout</text>
</g>
</g>
</svg>
