<?xml version="1.0" encoding="UTF-8" standalone="no"?>
<!DOCTYPE svg PUBLIC "-//W3C//DTD SVG 1.1//EN"
 "http://www.w3.org/Graphics/SVG/1.1/DTD/svg11.dtd">
<!-- Generated by graphviz version 2.43.0 (0)
 -->
<!-- Title: SenderFSM Pages: 1 -->
<svg width="2491pt" height="115pt"
 viewBox="0.00 0.00 2491.00 115.00" xmlns="http://www.w3.org/2000/svg" xmlns:xlink="http://www.w3.org/1999/xlink">
<g id="graph0" class="graph" transform="scale(1 1) rotate(0) translate(4 111)">
<title>SenderFSM</title>
<polygon fill="white" stroke="transparent" points="-4,4 -4,-111 2487,-111 2487,4 -4,4"/>
<!-- S_IDLE -->
<g id="node1" class="node">
<title>S_IDLE</title>
<polygon fill="none" stroke="black" points="69,-74 0,-74 0,-38 69,-38 69,-74"/>
<text text-anchor="middle" x="34.5" y="-52.3" font-family="Times,serif" font-size="14.00">S_IDLE</text>
</g>
<!-- S_HDR_SENT -->
<g id="node2" class="node">
<title>S_HDR_SENT</title>
<polygon fill="none" stroke="black" points="340,-74 225,-74 225,-38 340,-38 340,-74"/>
<text text-anchor="middle" x="282.5" y="-52.3" font-family="Times,serif" font-size="14.00">S_HDR_SENT</text>
</g>
<!-- S_IDLE&#45;&gt;S_HDR_SENT -->
<g id="edge1" class="edge">
<title>S_IDLE&#45;&gt;S_HDR_SENT</title>
<path fill="none" stroke="black" d="M69.19,-56C106.46,-56 167.46,-56 214.53,-56"/>
<polygon fill="black" stroke="black" points="214.66,-59.5 224.66,-56 214.66,-52.5 214.66,-59.5"/>
<text text-anchor="middle" x="147" y="-59.8" font-family="Times,serif" font-size="14.00">send(FILE_HDR)</text>
</g>
<!-- S_HDR_SENT&#45;&gt;S_HDR_SENT -->
<g id="edge2" class="edge">
<title>S_HDR_SENT&#45;&gt;S_HDR_SENT</title>
<path fill="none" stroke="black" d="M258.26,-74.15C254.53,-83.54 262.61,-92 282.5,-92 294.62,-92 302.36,-88.86 305.71,-84.28"/>
<polygon fill="black" stroke="black" points="309.21,-84.46 306.74,-74.15 302.24,-83.74 309.21,-84.46"/>
<text text-anchor="middle" x="282.5" y="-95.8" font-family="Times,serif" font-size="14.00">timeout(T_hdr) / retransmit(FILE_HDR)</text>
</g>
<!-- S_SENDING_BLAST -->
<g id="node3" class="node">
<title>S_SENDING_BLAST</title>
<polygon fill="none" stroke="black" points="690,-74 530,-74 530,-38 690,-38 690,-74"/>
<text text-anchor="middle" x="610" y="-52.3" font-family="Times,serif" font-size="14.00">S_SENDING_BLAST</text>
</g>
<!-- S_HDR_SENT&#45;&gt;S_SENDING_BLAST -->
<g id="edge3" class="edge">
<title>S_HDR_SENT&#45;&gt;S_SENDING_BLAST</title>
<path fill="none" stroke="black" d="M340.2,-56C389.68,-56 462.34,-56 519.64,-56"/>
<polygon fill="black" stroke="black" points="519.79,-59.5 529.79,-56 519.79,-52.5 519.79,-59.5"/>
<text text-anchor="middle" x="435" y="-59.8" font-family="Times,serif" font-size="14.00">recv(FILE_HDR_ACK)</text>
</g>
<!-- S_WAIT_REC_MISS -->
<g id="node4" class="node">
<title>S_WAIT_REC_MISS</title>
<polygon fill="none" stroke="black" points="1187,-74 1033,-74 1033,-38 1187,-38 1187,-74"/>
<text text-anchor="middle" x="1110" y="-52.3" font-family="Times,serif" font-size="14.00">S_WAIT_REC_MISS</text>
</g>
<!-- S_SENDING_BLAST&#45;&gt;S_WAIT_REC_MISS -->
<g id="edge4" class="edge">
<title>S_SENDING_BLAST&#45;&gt;S_WAIT_REC_MISS</title>
<path fill="none" stroke="black" d="M690.18,-56C781.01,-56 929.4,-56 1022.99,-56"/>
<polygon fill="black" stroke="black" points="1023,-59.5 1033,-56 1023,-52.5 1023,-59.5"/>
<text text-anchor="middle" x="861.5" y="-59.8" font-family="Times,serif" font-size="14.00">blast packets sent / send(IS_BLAST_OVER)</text>
</g>
<!-- S_WAIT_REC_MISS&#45;&gt;S_SENDING_BLAST -->
<g id="edge6" class="edge">
<title>S_WAIT_REC_MISS&#45;&gt;S_SENDING_BLAST</title>
<path fill="none" stroke="black" d="M1032.75,-39.27C1026.77,-38.36 1020.8,-37.58 1015,-37 879.23,-23.42 843.81,-23.82 708,-37 705.46,-37.25 702.89,-37.53 700.29,-37.84"/>
<polygon fill="black" stroke="black" points="699.67,-34.39 690.22,-39.19 700.6,-41.33 699.67,-34.39"/>
<text text-anchor="middle" x="861.5" y="-40.8" font-family="Times,serif" font-size="14.00">recv(REC_MISS({})) / more blasts remain</text>
</g>
<!-- S_WAIT_REC_MISS&#45;&gt;S_WAIT_REC_MISS -->
<g id="edge8" class="edge">
<title>S_WAIT_REC_MISS&#45;&gt;S_WAIT_REC_MISS</title>
<path fill="none" stroke="black" d="M1066.22,-74.15C1059.48,-83.54 1074.08,-92 1110,-92 1131.89,-92 1145.86,-88.86 1151.91,-84.28"/>
<polygon fill="black" stroke="black" points="1155.41,-84.62 1153.78,-74.15 1148.52,-83.35 1155.41,-84.62"/>
<text text-anchor="middle" x="1110" y="-95.8" font-family="Times,serif" font-size="14.00">timeout(T_isblast) / retransmit(IS_BLAST_OVER)</text>
</g>
<!-- S_SEND_MISSING -->
<g id="node5" class="node">
<title>S_SEND_MISSING</title>
<polygon fill="none" stroke="black" points="1681.5,-101 1531.5,-101 1531.5,-65 1681.5,-65 1681.5,-101"/>
<text text-anchor="middle" x="1606.5" y="-79.3" font-family="Times,serif" font-size="14.00">S_SEND_MISSING</text>
</g>
<!-- S_WAIT_REC_MISS&#45;&gt;S_SEND_MISSING -->
<g id="edge5" class="edge">
<title>S_WAIT_REC_MISS&#45;&gt;S_SEND_MISSING</title>
<path fill="none" stroke="black" d="M1187.06,-69.88C1193.12,-70.7 1199.15,-71.42 1205,-72 1313.87,-82.71 1440.13,-84.41 1521.32,-84.13"/>
<polygon fill="black" stroke="black" points="1521.5,-87.63 1531.49,-84.08 1521.47,-80.63 1521.5,-87.63"/>
<text text-anchor="middle" x="1352.5" y="-87.8" font-family="Times,serif" font-size="14.00">recv(REC_MISS(list != {}))</text>
</g>
<!-- S_LAST_BLAST_DONE -->
<g id="node6" class="node">
<title>S_LAST_BLAST_DONE</title>
<polygon fill="none" stroke="black" points="1695,-36 1518,-36 1518,0 1695,0 1695,-36"/>
<text text-anchor="middle" x="1606.5" y="-14.3" font-family="Times,serif" font-size="14.00">S_LAST_BLAST_DONE</text>
</g>
<!-- S_WAIT_REC_MISS&#45;&gt;S_LAST_BLAST_DONE -->
<g id="edge7" class="edge">
<title>S_WAIT_REC_MISS&#45;&gt;S_LAST_BLAST_DONE</title>
<path fill="none" stroke="black" d="M1154.72,-37.94C1170.32,-32.36 1188.18,-26.91 1205,-24 1307.01,-6.33 1425.83,-7.18 1507.4,-10.99"/>
<polygon fill="black" stroke="black" points="1507.5,-14.5 1517.66,-11.49 1507.84,-7.51 1507.5,-14.5"/>
<text text-anchor="middle" x="1352.5" y="-27.8" font-family="Times,serif" font-size="14.00">recv(REC_MISS({})) / this was final blast</text>
</g>
<!-- S_SEND_MISSING&#45;&gt;S_WAIT_REC_MISS -->
<g id="edge9" class="edge">
<title>S_SEND_MISSING&#45;&gt;S_WAIT_REC_MISS</title>
<path fill="none" stroke="black" d="M1552.99,-64.98C1536.26,-60.07 1517.54,-55.45 1500,-53 1396.77,-38.61 1276.64,-42.66 1197.5,-48.15"/>
<polygon fill="black" stroke="black" points="1196.82,-44.69 1187.09,-48.89 1197.32,-51.67 1196.82,-44.69"/>
<text text-anchor="middle" x="1352.5" y="-56.8" font-family="Times,serif" font-size="14.00">sent missing records</text>
</g>
<!-- S_DISCONNECT -->
<g id="node7" class="node">
<title>S_DISCONNECT</title>
<polygon fill="none" stroke="black" points="2013,-36 1878,-36 1878,0 2013,0 2013,-36"/>
<text text-anchor="middle" x="1945.5" y="-14.3" font-family="Times,serif" font-size="14.00">S_DISCONNECT</text>
</g>
<!-- S_LAST_BLAST_DONE&#45;&gt;S_DISCONNECT -->
<g id="edge10" class="edge">
<title>S_LAST_BLAST_DONE&#45;&gt;S_DISCONNECT</title>
<path fill="none" stroke="black" d="M1695.16,-18C1748.64,-18 1816.36,-18 1867.72,-18"/>
<polygon fill="black" stroke="black" points="1867.77,-21.5 1877.77,-18 1867.77,-14.5 1867.77,-21.5"/>
<text text-anchor="middle" x="1786.5" y="-21.8" font-family="Times,serif" font-size="14.00">send(DISCONNECT)</text>
</g>
<!-- S_LINGER -->
<g id="node8" class="node">
<title>S_LINGER</title>
<polygon fill="none" stroke="black" points="2266,-36 2174,-36 2174,0 2266,0 2266,-36"/>
<text text-anchor="middle" x="2220" y="-14.3" font-family="Times,serif" font-size="14.00">S_LINGER</text>
</g>
<!-- S_DISCONNECT&#45;&gt;S_LINGER -->
<g id="edge11" class="edge">
<title>S_DISCONNECT&#45;&gt;S_LINGER</title>
<path fill="none" stroke="black" d="M2013.16,-18C2059.4,-18 2120.26,-18 2163.79,-18"/>
<polygon fill="black" stroke="black" points="2163.91,-21.5 2173.91,-18 2163.91,-14.5 2163.91,-21.5"/>
<text text-anchor="middle" x="2093.5" y="-21.8" font-family="Times,serif" font-size="14.00">start linger timer</text>
</g>
<!-- S_DONE -->
<g id="node9" class="node">
<title>S_DONE</title>
<polygon fill="none" stroke="black" points="2483,-36 2405,-36 2405,0 2483,0 2483,-36"/>
<text text-anchor="middle" x="2444" y="-14.3" font-family="Times,serif" font-size="14.00">S_DONE</text>
</g>
<!-- S_LINGER&#45;&gt;S_DONE -->
<g id="edge12" class="edge">
<title>S_LINGER&#45;&gt;S_DONE</title>
<path fill="none" stroke="black" d="M2266.19,-18C2303.51,-18 2356.35,-18 2394.53,-18"/>
<polygon fill="black" stroke="black" points="2394.89,-21.5 2404.89,-18 2394.89,-14.5 2394.89,-21.5"/>
<text text-anchor="middle" x="2335.5" y="-21.8" font-family="Times,serif" font-size="14.00">linger timeout</text>
</g>
</g>
</svg>
