<?xml version="1.0" encoding="UTF-8" standalone="no"?>
<!DOCTYPE svg PUBLIC "-//W3C//DTD SVG 1.1//EN"
 "http://www.w3.org/Graphics/SVG/1.1/DTD/svg11.dtd">
<!-- Generated by graphviz version 2.43.0 (0)
 -->
<!-- Title: SenderFSM Pages: 1 -->
<svg width="2517pt" height="122pt"
 viewBox="0.00 0.00 2517.00 122.00" xmlns="http://www.w3.org/2000/svg" xmlns:xlink="http://www.w3.org/1999/xlink">
<g id="graph0" class="graph" transform="scale(1 1) rotate(0) translate(4 118)">
<title>SenderFSM</title>
<polygon fill="white" stroke="transparent" points="-4,4 -4,-118 2513,-118 2513,4 -4,4"/>
<!-- S_IDLE -->
<g id="node1" class="node">
<title>S_IDLE</title>
<polygon fill="none" stroke="black" points="69,-72 0,-72 0,-36 69,-36 69,-72"/>
<text text-anchor="middle" x="34.5" y="-50.3" font-family="Times,serif" font-size="14.00">S_IDLE</text>
</g>
<!-- S_HDR_SENT -->
<g id="node2" class="node">
<title>S_HDR_SENT</title>
<polygon fill="none" stroke="black" points="340,-72 225,-72 225,-36 340,-36 340,-72"/>
<text text-anchor="middle" x="282.5" y="-50.3" font-family="Times,serif" font-size="14.00">S_HDR_SENT</text>
</g>
<!-- S_IDLE&#45;&gt;S_HDR_SENT -->
<g id="edge1" class="edge">
<title>S_IDLE&#45;&gt;S_HDR_SENT</title>
<path fill="none" stroke="black" d="M69.19,-54C106.46,-54 167.46,-54 214.53,-54"/>
<polygon fill="black" stroke="black" points="214.66,-57.5 224.66,-54 214.66,-50.5 214.66,-57.5"/>
<text text-anchor="middle" x="147" y="-57.8" font-family="Times,serif" font-size="14.00">send(FILE_HDR)</text>
</g>
<!-- S_HDR_SENT&#45;&gt;S_IDLE -->
<g id="edge2" class="edge">
<title>S_HDR_SENT&#45;&gt;S_IDLE</title>
<path fill="none" stroke="black" d="M224.84,-38C218.85,-36.77 212.83,-35.73 207,-35 154.08,-28.36 139.5,-25.62 87,-35 84.32,-35.48 81.6,-36.09 78.88,-36.79"/>
<polygon fill="black" stroke="black" points="77.69,-33.49 69.1,-39.69 79.68,-40.2 77.69,-33.49"/>
<text text-anchor="middle" x="147" y="-38.8" font-family="Times,serif" font-size="14.00">timeout(T_hdr)</text>
</g>
<!-- S_SENDING_BLAST -->
<g id="node3" class="node">
<title>S_SENDING_BLAST</title>
<polygon fill="none" stroke="black" points="690,-72 530,-72 530,-36 690,-36 690,-72"/>
<text text-anchor="middle" x="610" y="-50.3" font-family="Times,serif" font-size="14.00">S_SENDING_BLAST</text>
</g>
<!-- S_HDR_SENT&#45;&gt;S_SENDING_BLAST -->
<g id="edge3" class="edge">
<title>S_HDR_SENT&#45;&gt;S_SENDING_BLAST</title>
<path fill="none" stroke="black" d="M340.2,-54C389.68,-54 462.34,-54 519.64,-54"/>
<polygon fill="black" stroke="black" points="519.79,-57.5 529.79,-54 519.79,-50.5 519.79,-57.5"/>
<text text-anchor="middle" x="435" y="-57.8" font-family="Times,serif" font-size="14.00">recv(FILE_HDR_ACK)</text>
</g>
<!-- S_SENDING_BLAST&#45;&gt;S_SENDING_BLAST -->
<g id="edge4" class="edge">
<title>S_SENDING_BLAST&#45;&gt;S_SENDING_BLAST</title>
<path fill="none" stroke="black" d="M578.52,-72.15C573.68,-81.54 584.17,-90 610,-90 625.74,-90 635.78,-86.86 640.13,-82.28"/>
<polygon fill="black" stroke="black" points="643.63,-82.53 641.48,-72.15 636.69,-81.6 643.63,-82.53"/>
<text text-anchor="middle" x="610" y="-93.8" font-family="Times,serif" font-size="14.00">send({(st rec1, end rec1), . . . , (st recN , end recN )}forN≥1)</text>
</g>
<!-- S_WAIT_REC_MISS -->
<g id="node4" class="node">
<title>S_WAIT_REC_MISS</title>
<polygon fill="none" stroke="black" points="1218.5,-81 1064.5,-81 1064.5,-45 1218.5,-45 1218.5,-81"/>
<text text-anchor="middle" x="1141.5" y="-59.3" font-family="Times,serif" font-size="14.00">S_WAIT_REC_MISS</text>
</g>
<!-- S_SENDING_BLAST&#45;&gt;S_WAIT_REC_MISS -->
<g id="edge5" class="edge">
<title>S_SENDING_BLAST&#45;&gt;S_WAIT_REC_MISS</title>
<path fill="none" stroke="black" d="M651.2,-72.04C668.34,-78.79 688.78,-85.64 708,-89 826.79,-109.78 966.42,-94.33 1054.2,-79.89"/>
<polygon fill="black" stroke="black" points="1054.83,-83.33 1064.11,-78.22 1053.67,-76.43 1054.83,-83.33"/>
<text text-anchor="middle" x="806" y="-102.8" font-family="Times,serif" font-size="14.00">send(IS_BLAST_OVER)</text>
</g>
<!-- S_WAIT_REC_MISS&#45;&gt;S_SENDING_BLAST -->
<g id="edge6" class="edge">
<title>S_WAIT_REC_MISS&#45;&gt;S_SENDING_BLAST</title>
<path fill="none" stroke="black" d="M1064.13,-61.7C967.87,-60.07 802.67,-57.26 700.56,-55.52"/>
<polygon fill="black" stroke="black" points="700.33,-52.02 690.27,-55.35 700.21,-59.02 700.33,-52.02"/>
<text text-anchor="middle" x="806" y="-61.8" font-family="Times,serif" font-size="14.00">recv(REC_MISS(list != {}))</text>
</g>
<!-- S_WAIT_REC_MISS&#45;&gt;S_SENDING_BLAST -->
<g id="edge8" class="edge">
<title>S_WAIT_REC_MISS&#45;&gt;S_SENDING_BLAST</title>
<path fill="none" stroke="black" d="M1064.22,-51.15C977.73,-39.35 832.55,-24.54 708,-36 705.46,-36.23 702.89,-36.5 700.3,-36.8"/>
<polygon fill="black" stroke="black" points="699.72,-33.34 690.24,-38.07 700.6,-40.29 699.72,-33.34"/>
<text text-anchor="middle" x="806" y="-39.8" font-family="Times,serif" font-size="14.00">timeout(T_isblastover)</text>
</g>
<!-- S_LAST_BLAST_DONE -->
<g id="node5" class="node">
<title>S_LAST_BLAST_DONE</title>
<polygon fill="none" stroke="black" points="1721,-36 1544,-36 1544,0 1721,0 1721,-36"/>
<text text-anchor="middle" x="1632.5" y="-14.3" font-family="Times,serif" font-size="14.00">S_LAST_BLAST_DONE</text>
</g>
<!-- S_WAIT_REC_MISS&#45;&gt;S_LAST_BLAST_DONE -->
<g id="edge7" class="edge">
<title>S_WAIT_REC_MISS&#45;&gt;S_LAST_BLAST_DONE</title>
<path fill="none" stroke="black" d="M1218.64,-55.99C1303.5,-48.18 1440.98,-35.53 1533.74,-27"/>
<polygon fill="black" stroke="black" points="1534.34,-30.46 1543.98,-26.05 1533.7,-23.49 1534.34,-30.46"/>
<text text-anchor="middle" x="1452.5" y="-43.8" font-family="Times,serif" font-size="14.00">recv(REC_MISS({}))</text>
</g>
<!-- S_LAST_BLAST_DONE&#45;&gt;S_SENDING_BLAST -->
<g id="edge10" class="edge">
<title>S_LAST_BLAST_DONE&#45;&gt;S_SENDING_BLAST</title>
<path fill="none" stroke="black" d="M1543.83,-17.57C1409.83,-17.09 1145.99,-16.86 922,-21 826.85,-22.76 802.13,-14.03 708,-28 698.72,-29.38 689.06,-31.32 679.58,-33.54"/>
<polygon fill="black" stroke="black" points="678.68,-30.16 669.79,-35.93 680.34,-36.96 678.68,-30.16"/>
<text text-anchor="middle" x="1141.5" y="-24.8" font-family="Times,serif" font-size="14.00">send({(st rec1, end rec1), . . . , (st recN , end recN )}forN≥1)</text>
</g>
<!-- S_DISCONNECT -->
<g id="node6" class="node">
<title>S_DISCONNECT</title>
<polygon fill="none" stroke="black" points="2039,-36 1904,-36 1904,0 2039,0 2039,-36"/>
<text text-anchor="middle" x="1971.5" y="-14.3" font-family="Times,serif" font-size="14.00">S_DISCONNECT</text>
</g>
<!-- S_LAST_BLAST_DONE&#45;&gt;S_DISCONNECT -->
<g id="edge9" class="edge">
<title>S_LAST_BLAST_DONE&#45;&gt;S_DISCONNECT</title>
<path fill="none" stroke="black" d="M1721.16,-18C1774.64,-18 1842.36,-18 1893.72,-18"/>
<polygon fill="black" stroke="black" points="1893.77,-21.5 1903.77,-18 1893.77,-14.5 1893.77,-21.5"/>
<text text-anchor="middle" x="1812.5" y="-21.8" font-family="Times,serif" font-size="14.00">send(DISCONNECT)</text>
</g>
<!-- S_LINGER -->
<g id="node7" class="node">
<title>S_LINGER</title>
<polygon fill="none" stroke="black" points="2292,-36 2200,-36 2200,0 2292,0 2292,-36"/>
<text text-anchor="middle" x="2246" y="-14.3" font-family="Times,serif" font-size="14.00">S_LINGER</text>
</g>
<!-- S_DISCONNECT&#45;&gt;S_LINGER -->
<g id="edge11" class="edge">
<title>S_DISCONNECT&#45;&gt;S_LINGER</title>
<path fill="none" stroke="black" d="M2039.16,-18C2085.4,-18 2146.26,-18 2189.79,-18"/>
<polygon fill="black" stroke="black" points="2189.91,-21.5 2199.91,-18 2189.91,-14.5 2189.91,-21.5"/>
<text text-anchor="middle" x="2119.5" y="-21.8" font-family="Times,serif" font-size="14.00">start linger timer</text>
</g>
<!-- S_DONE -->
<g id="node8" class="node">
<title>S_DONE</title>
<polygon fill="none" stroke="black" points="2509,-36 2431,-36 2431,0 2509,0 2509,-36"/>
<text text-anchor="middle" x="2470" y="-14.3" font-family="Times,serif" font-size="14.00">S_DONE</text>
</g>
<!-- S_LINGER&#45;&gt;S_DONE -->
<g id="edge12" class="edge">
<title>S_LINGER&#45;&gt;S_DONE</title>
<path fill="none" stroke="black" d="M2292.19,-18C2329.51,-18 2382.35,-18 2420.53,-18"/>
<polygon fill="black" stroke="black" points="2420.89,-21.5 2430.89,-18 2420.89,-14.5 2420.89,-21.5"/>
<text text-anchor="middle" x="2361.5" y="-21.8" font-family="Times,serif" font-size="14.00">linger timeout</text>
</g>
</g>
</svg>
