<?xml version="1.0" encoding="UTF-8" standalone="no"?>
<!DOCTYPE svg PUBLIC "-//W3C//DTD SVG 1.1//EN"
 "http://www.w3.org/Graphics/SVG/1.1/DTD/svg11.dtd">
<!-- Generated by graphviz version 2.43.0 (0)
 -->
<!-- Title: SenderFSM Pages: 1 -->
<svg width="2533pt" height="97pt"
 viewBox="0.00 0.00 2533.00 97.32" xmlns="http://www.w3.org/2000/svg" xmlns:xlink="http://www.w3.org/1999/xlink">
<g id="graph0" class="graph" transform="scale(1 1) rotate(0) translate(4 93.32)">
<title>SenderFSM</title>
<polygon fill="white" stroke="transparent" points="-4,4 -4,-93.32 2529,-93.32 2529,4 -4,4"/>
<!-- S_IDLE -->
<g id="node1" class="node">
<title>S_IDLE</title>
<polygon fill="none" stroke="black" points="69,-56.32 0,-56.32 0,-20.32 69,-20.32 69,-56.32"/>
<text text-anchor="middle" x="34.5" y="-34.62" font-family="Times,serif" font-size="14.00">S_IDLE</text>
</g>
<!-- S_HDR_SENT -->
<g id="node2" class="node">
<title>S_HDR_SENT</title>
<polygon fill="none" stroke="black" points="340,-56.32 225,-56.32 225,-20.32 340,-20.32 340,-56.32"/>
<text text-anchor="middle" x="282.5" y="-34.62" font-family="Times,serif" font-size="14.00">S_HDR_SENT</text>
</g>
<!-- S_IDLE&#45;&gt;S_HDR_SENT -->
<g id="edge1" class="edge">
<title>S_IDLE&#45;&gt;S_HDR_SENT</title>
<path fill="none" stroke="black" d="M69.19,-38.32C106.46,-38.32 167.46,-38.32 214.53,-38.32"/>
<polygon fill="black" stroke="black" points="214.66,-41.82 224.66,-38.32 214.66,-34.82 214.66,-41.82"/>
<text text-anchor="middle" x="147" y="-42.12" font-family="Times,serif" font-size="14.00">send(FILE_HDR)</text>
</g>
<!-- S_HDR_SENT&#45;&gt;S_IDLE -->
<g id="edge2" class="edge">
<title>S_HDR_SENT&#45;&gt;S_IDLE</title>
<path fill="none" stroke="black" d="M224.84,-22.32C218.85,-21.1 212.83,-20.06 207,-19.32 154.08,-12.68 139.5,-9.95 87,-19.32 84.32,-19.8 81.6,-20.41 78.88,-21.11"/>
<polygon fill="black" stroke="black" points="77.69,-17.81 69.1,-24.01 79.68,-24.52 77.69,-17.81"/>
<text text-anchor="middle" x="147" y="-23.12" font-family="Times,serif" font-size="14.00">timeout(T_hdr)</text>
</g>
<!-- S_SENDING_BLAST -->
<g id="node3" class="node">
<title>S_SENDING_BLAST</title>
<polygon fill="none" stroke="black" points="690,-56.32 530,-56.32 530,-20.32 690,-20.32 690,-56.32"/>
<text text-anchor="middle" x="610" y="-34.62" font-family="Times,serif" font-size="14.00">S_SENDING_BLAST</text>
</g>
<!-- S_HDR_SENT&#45;&gt;S_SENDING_BLAST -->
<g id="edge3" class="edge">
<title>S_HDR_SENT&#45;&gt;S_SENDING_BLAST</title>
<path fill="none" stroke="black" d="M340.2,-38.32C389.68,-38.32 462.34,-38.32 519.64,-38.32"/>
<polygon fill="black" stroke="black" points="519.79,-41.82 529.79,-38.32 519.79,-34.82 519.79,-41.82"/>
<text text-anchor="middle" x="435" y="-42.12" font-family="Times,serif" font-size="14.00">recv(FILE_HDR_ACK)</text>
</g>
<!-- S_SENDING_BLAST&#45;&gt;S_SENDING_BLAST -->
<g id="edge4" class="edge">
<title>S_SENDING_BLAST&#45;&gt;S_SENDING_BLAST</title>
<path fill="none" stroke="black" d="M578.52,-56.48C573.68,-65.86 584.17,-74.32 610,-74.32 625.74,-74.32 635.78,-71.18 640.13,-66.6"/>
<polygon fill="black" stroke="black" points="643.63,-66.85 641.48,-56.48 636.69,-65.93 643.63,-66.85"/>
<text text-anchor="middle" x="610" y="-78.12" font-family="Times,serif" font-size="14.00">send({(st rec1, end rec1), . . . , (st recN , end recN )}forN≥1)</text>
</g>
<!-- S_WAIT_REC_MISS -->
<g id="node4" class="node">
<title>S_WAIT_REC_MISS</title>
<polygon fill="none" stroke="black" points="1229,-56.32 1075,-56.32 1075,-20.32 1229,-20.32 1229,-56.32"/>
<text text-anchor="middle" x="1152" y="-34.62" font-family="Times,serif" font-size="14.00">S_WAIT_REC_MISS</text>
</g>
<!-- S_SENDING_BLAST&#45;&gt;S_WAIT_REC_MISS -->
<g id="edge5" class="edge">
<title>S_SENDING_BLAST&#45;&gt;S_WAIT_REC_MISS</title>
<path fill="none" stroke="black" d="M690.01,-52.45C696.08,-53.2 702.13,-53.84 708,-54.32 862.59,-66.99 902.44,-67.38 1057,-54.32 1059.56,-54.11 1062.16,-53.86 1064.78,-53.58"/>
<polygon fill="black" stroke="black" points="1065.43,-57.03 1074.95,-52.38 1064.61,-50.08 1065.43,-57.03"/>
<text text-anchor="middle" x="882.5" y="-67.12" font-family="Times,serif" font-size="14.00">send(IS_BLAST_OVER)</text>
</g>
<!-- S_WAIT_REC_MISS&#45;&gt;S_SENDING_BLAST -->
<g id="edge6" class="edge">
<title>S_WAIT_REC_MISS&#45;&gt;S_SENDING_BLAST</title>
<path fill="none" stroke="black" d="M1074.82,-35.69C1068.79,-35.54 1062.8,-35.42 1057,-35.32 901.91,-32.85 863.09,-32.93 708,-35.32 705.46,-35.36 702.88,-35.41 700.27,-35.46"/>
<polygon fill="black" stroke="black" points="700.06,-31.96 690.14,-35.67 700.21,-38.96 700.06,-31.96"/>
<text text-anchor="middle" x="882.5" y="-39.12" font-family="Times,serif" font-size="14.00">recv(REC_MISS(list != {})) / more blasts remain</text>
</g>
<!-- S_WAIT_REC_MISS&#45;&gt;S_SENDING_BLAST -->
<g id="edge8" class="edge">
<title>S_WAIT_REC_MISS&#45;&gt;S_SENDING_BLAST</title>
<path fill="none" stroke="black" d="M1089.48,-20.28C1078.74,-17.81 1067.61,-15.66 1057,-14.32 903.1,5.01 861.97,4.44 708,-14.32 700.31,-15.26 692.35,-16.6 684.46,-18.18"/>
<polygon fill="black" stroke="black" points="683.57,-14.79 674.51,-20.28 685.02,-21.63 683.57,-14.79"/>
<text text-anchor="middle" x="882.5" y="-18.12" font-family="Times,serif" font-size="14.00">timeout(T_isblastover)</text>
</g>
<!-- S_LAST_BLAST_DONE -->
<g id="node5" class="node">
<title>S_LAST_BLAST_DONE</title>
<polygon fill="none" stroke="black" points="1737,-56.32 1560,-56.32 1560,-20.32 1737,-20.32 1737,-56.32"/>
<text text-anchor="middle" x="1648.5" y="-34.62" font-family="Times,serif" font-size="14.00">S_LAST_BLAST_DONE</text>
</g>
<!-- S_WAIT_REC_MISS&#45;&gt;S_LAST_BLAST_DONE -->
<g id="edge7" class="edge">
<title>S_WAIT_REC_MISS&#45;&gt;S_LAST_BLAST_DONE</title>
<path fill="none" stroke="black" d="M1229.18,-38.32C1315.31,-38.32 1455.76,-38.32 1549.87,-38.32"/>
<polygon fill="black" stroke="black" points="1549.97,-41.82 1559.97,-38.32 1549.97,-34.82 1549.97,-41.82"/>
<text text-anchor="middle" x="1394.5" y="-42.12" font-family="Times,serif" font-size="14.00">recv(REC_MISS({})) / this was final blast</text>
</g>
<!-- S_DISCONNECT -->
<g id="node6" class="node">
<title>S_DISCONNECT</title>
<polygon fill="none" stroke="black" points="2055,-56.32 1920,-56.32 1920,-20.32 2055,-20.32 2055,-56.32"/>
<text text-anchor="middle" x="1987.5" y="-34.62" font-family="Times,serif" font-size="14.00">S_DISCONNECT</text>
</g>
<!-- S_LAST_BLAST_DONE&#45;&gt;S_DISCONNECT -->
<g id="edge9" class="edge">
<title>S_LAST_BLAST_DONE&#45;&gt;S_DISCONNECT</title>
<path fill="none" stroke="black" d="M1737.16,-38.32C1790.64,-38.32 1858.36,-38.32 1909.72,-38.32"/>
<polygon fill="black" stroke="black" points="1909.77,-41.82 1919.77,-38.32 1909.77,-34.82 1909.77,-41.82"/>
<text text-anchor="middle" x="1828.5" y="-42.12" font-family="Times,serif" font-size="14.00">send(DISCONNECT)</text>
</g>
<!-- S_LINGER -->
<g id="node7" class="node">
<title>S_LINGER</title>
<polygon fill="none" stroke="black" points="2308,-56.32 2216,-56.32 2216,-20.32 2308,-20.32 2308,-56.32"/>
<text text-anchor="middle" x="2262" y="-34.62" font-family="Times,serif" font-size="14.00">S_LINGER</text>
</g>
<!-- S_DISCONNECT&#45;&gt;S_LINGER -->
<g id="edge10" class="edge">
<title>S_DISCONNECT&#45;&gt;S_LINGER</title>
<path fill="none" stroke="black" d="M2055.16,-38.32C2101.4,-38.32 2162.26,-38.32 2205.79,-38.32"/>
<polygon fill="black" stroke="black" points="2205.91,-41.82 2215.91,-38.32 2205.91,-34.82 2205.91,-41.82"/>
<text text-anchor="middle" x="2135.5" y="-42.12" font-family="Times,serif" font-size="14.00">start linger timer</text>
</g>
<!-- S_DONE -->
<g id="node8" class="node">
<title>S_DONE</title>
<polygon fill="none" stroke="black" points="2525,-56.32 2447,-56.32 2447,-20.32 2525,-20.32 2525,-56.32"/>
<text text-anchor="middle" x="2486" y="-34.62" font-family="Times,serif" font-size="14.00">S_DONE</text>
</g>
<!-- S_LINGER&#45;&gt;S_DONE -->
<g id="edge11" class="edge">
<title>S_LINGER&#45;&gt;S_DONE</title>
<path fill="none" stroke="black" d="M2308.19,-38.32C2345.51,-38.32 2398.35,-38.32 2436.53,-38.32"/>
<polygon fill="black" stroke="black" points="2436.89,-41.82 2446.89,-38.32 2436.89,-34.82 2436.89,-41.82"/>
<text text-anchor="middle" x="2377.5" y="-42.12" font-family="Times,serif" font-size="14.00">linger timeout</text>
</g>
</g>
</svg>
